mtllib material.mtl
g octahedron

# Vertex list
v   0.0   0.0  10.0
v   0.0  10.0   0.0
v -10.0   0.0   0.0
v   0.0 -10.0   0.0
v  10.0   0.0   0.0
v   0.0   0.0 -10.0

# Vertex Normals
vn  0.0000000  0.0000000  2.4183991
vn  0.0000000  2.4183991  0.0000000
vn -2.4183991  0.0000000  0.0000000
vn  0.0000000 -2.4183991  0.0000000
vn  2.4183991  0.0000000  0.0000000
vn  0.0000000  0.0000000 -2.4183991

# Material
usemtl material

f 1//1 2//2 3//3
f 1//1 3//3 4//4
f 1//1 4//4 5//5
f 1//1 5//5 2//2
f 2//2 6//6 3//3
f 3//3 6//6 4//4
f 4//4 6//6 5//5
f 5//5 6//6 2//2

# End of File
